
        <svg xmlns="http://www.w3.org/2000/svg" xmlns:xlink="http://www.w3.org/1999/xlink" version="1.1" width="3190.4761904761904" 
        height="961.9047619047619" viewBox="0 0 3190.4761904761904 961.9047619047619">
			
			<g transform="scale(9.523809523809524) translate(10, 10)">
				<defs id="SvgjsDefs2165"></defs><g id="SvgjsG2166" featureKey="symbolContainer" transform="matrix(0.9,0,0,0.9,0,0)" fill="#2d9583"><rect xmlns="http://www.w3.org/2000/svg" width="105" height="90" rx="10" ry="10"></rect></g><g id="SvgjsG2167" featureKey="symbolFeature-0" transform="matrix(0.725106465932548,0,0,0.725106465932548,11.25975598177297,4.538430508079426)" fill="#ffffff"><g xmlns="http://www.w3.org/2000/svg"><path d="M25.668005,53.5557289c0.8758793,0.4211922,1.8006535,0.7330437,2.7858734,0.8985939   c0.6129208,0.1166573,1.2443237,0.1767159,1.8911266,0.1767159c0.0261803,0,0.0527458,0,0.0527458,0   c0.6279373-0.0076981,1.2219944-0.0677605,1.8006516-0.1655502c0.9929199-0.172863,1.9327087-0.4735527,2.816288-0.890892   c2.6807671-1.3009224,4.7709389-3.6432724,5.66222-6.5384827c0.3195496-1.0187149,0.4962654-2.1017227,0.4962654-3.2259293   c0-5.9856186-4.853714-10.8281708-10.8281708-10.8281708c-3.3949432,0-6.3840961,1.5904427-8.3730145,4.0382843   c-1.5038166,1.864563-2.4551563,4.2034454-2.4551563,6.7898865c0,1.1357536,0.1840324,2.2295456,0.4962673,3.2486458   C20.9228611,49.931324,22.9907055,52.269825,25.668005,53.5557289z"></path><path d="M41.6243973,59.7554131L30.345005,59.7442474H18.9039116c-6.5080662,0-11.8996286,4.5907593-13.3510847,10.8208542   c-0.2367764,1.0337296-0.3869267,2.1017227-0.3946271,3.2070618c0,0.0488968,0,0.0789261,0,0.1278229v10.0346832h50.3736115   h0.0073166v-9.83564c0-0.1051025-0.0034676-0.2067413-0.0073166-0.3268661   C55.3701096,66.6473236,49.858429,59.7554131,41.6243973,59.7554131z"></path><path d="M90.3925552,28.2222404l-3.9404984-10.1740532c-0.7403564-1.9473381-2.3496628-3.6055403-5.3988724-3.6205549h-5.5532684   H66.006546h-5.6583633c-3.0341988,0.0150146-4.6396561,1.6732168-5.3954124,3.6205549l-3.9366417,10.1740532   c-1.5638771,0.1994305-4.3312683,2.0378132-4.3274193,5.5232315v12.948761v7.0643921h7.2037659v-7.0643921H70.721283h16.791069   v7.0643921H94.75v-7.0643921V33.745472C94.7388382,30.2600536,91.9641266,28.4216709,90.3925552,28.2222404z    M54.2459068,38.8775444c-1.8422356,0.0073166-3.3348846-1.5303802-3.3275719-3.4215088   c-0.0073128-1.9022942,1.4853363-3.439991,3.3275719-3.4288254c1.8383827-0.0111656,3.3275681,1.5265312,3.323719,3.4288254   C57.5734749,37.3471642,56.0842896,38.884861,54.2459068,38.8775444z M70.6874008,28.1244488H55.1144676l2.9741402-8.0157337   c0.3568954-1.1353683,0.9170723-1.9477215,2.2295418-1.9665871h10.3692513h0.0338821h10.3996582   c1.2932205,0.0188656,1.8495483,0.8312187,2.2256927,1.9665871l2.974144,8.0157337H70.721283H70.6874008z M87.1928024,38.8775444   c-1.8572464,0.0073166-3.3498993-1.5303802-3.3572159-3.4215088c0.0073166-1.9022942,1.4999695-3.439991,3.3572159-3.4288254   c1.8237534-0.0111656,3.3125534,1.5265312,3.3237228,3.4288254C90.5053558,37.3471642,89.0165558,38.884861,87.1928024,38.8775444z   "></path></g></g><g id="SvgjsG2168" featureKey="nameFeature-0" transform="matrix(1.5132235036379384,0,0,1.5132235036379384,112.99092108614241,2.8689743001837726)" fill="#2d9583"><path d="M17.148 10 l5.625 0 l0 30 l-5.332 0 l-0.13672 -2.6172 c-1.1523 1.9727 -3.5742 3.0859 -6.3086 3.0859 c-5.293 0 -9.668 -3.9063 -9.668 -10.469 s4.3945 -10.469 9.668 -10.469 c2.6367 0 4.9609 0.99609 6.1523 2.8125 l0 -12.344 z M12.285 35.8008 c2.9883 0 5.3125 -2.2852 5.3125 -5.8008 s-2.3438 -5.8203 -5.3125 -5.8203 c-2.9883 0 -5.332 2.207 -5.332 5.8203 c0 3.5938 2.3438 5.8008 5.332 5.8008 z M32.1679875 23.105 c1.0156 -1.7773 3.6523 -3.418 6.5625 -3.418 l0 5.0195 c-4.2578 0 -6.2891 1.25 -6.2891 5.5078 l0 9.7852 l-5.6641 0 l0 -20.078 l5.3906 0 l0 3.1836 z M43.0859875 16.914 c-1.7773 0 -3.2617 -1.4453 -3.2617 -3.2422 c0 -1.7773 1.4844 -3.2227 3.2617 -3.2227 c1.7383 0 3.2227 1.4453 3.2227 3.2227 c0 1.7969 -1.4844 3.2422 -3.2227 3.2422 z M40.2148875 40 l0 -20.078 l5.6641 0 l0 20.078 l-5.6641 0 z M62.949656250000004 19.922 l5.957 0 l-8.5547 20.078 l-4.8828 0 l-8.457 -20.078 l5.918 0 l5 13.73 z M72.91020625 16.914 c-1.7773 0 -3.2617 -1.4453 -3.2617 -3.2422 c0 -1.7773 1.4844 -3.2227 3.2617 -3.2227 c1.7383 0 3.2227 1.4453 3.2227 3.2227 c0 1.7969 -1.4844 3.2422 -3.2227 3.2422 z M70.03910625 40 l0 -20.078 l5.6641 0 l0 20.078 l-5.6641 0 z M93.007875 19.922 l5.625 0 l0 20.078 l-5.332 0 l-0.13672 -2.4219 c-1.4063 1.7773 -3.6328 2.8125 -6.3867 2.8125 c-4.8242 0 -7.4805 -2.5195 -7.4805 -6.9531 l0 -13.516 l5.6445 0 l0 12.305 c0 2.6563 1.6602 3.6328 3.6133 3.6328 c2.3242 0 4.4336 -1.1719 4.4531 -4.8633 l0 -11.074 z M126.4255625 19.531 c4.2969 0 7.0703 2.1875 7.0703 6.3086 l0 14.16 l-5.625 0 l0 -12.559 c0 -2.3633 -1.4844 -3.3984 -3.1641 -3.3984 c-2.0117 0 -3.7891 1.1523 -3.7891 4.6289 l0 11.328 l-5.6836 0 l0 -12.5 c0 -2.4023 -1.4453 -3.457 -3.2227 -3.457 c-1.9531 0 -3.7695 1.1523 -3.7695 4.9219 l0 11.035 l-5.6055 0 l0 -20.078 l5.6055 0 l0 2.3633 c1.3281 -1.7773 3.3594 -2.7539 5.8203 -2.7539 c2.9102 0 5.0977 1.0547 6.1523 3.0078 c1.4063 -2.0117 3.5547 -3.0078 6.2109 -3.0078 z"></path></g>
			</g>
		</svg>
	